<svg xmlns="http://www.w3.org/2000/svg" width="24" height="24" stroke="#000" stroke-width="0.4" viewBox="0 0 24 24" id="calendar-date-end"><path d="m18,4.5h-1.5v-1.5c0-.2764-.2236-.5-.5-.5s-.5.2236-.5.5v1.5h-7v-1.5c0-.2764-.2236-.5-.5-.5s-.5.2236-.5.5v1.5h-1.5c-1.9297,0-3.5,1.5703-3.5,3.5v10c0,1.9297,1.5703,3.5,3.5,3.5h12c1.9297,0,3.5-1.5703,3.5-3.5v-10c0-1.9297-1.5703-3.5-3.5-3.5Zm2.5,13.5c0,1.3784-1.1216,2.5-2.5,2.5H6c-1.3784,0-2.5-1.1216-2.5-2.5v-6.5h17v6.5Zm0-7.5H3.5v-2.5c0-1.3784,1.1216-2.5,2.5-2.5h1.5v1.5c0,.2764.2236.5.5.5s.5-.2236.5-.5v-1.5h7v1.5c0,.2764.2236.5.5.5s.5-.2236.5-.5v-1.5h1.5c1.3784,0,2.5,1.1216,2.5,2.5v2.5Zm-3.5,8v-1c0-.2762.2239-.5.5-.5h1c.2761,0,.5.2238.5.5v1c0,.2761-.2239.5-.5.5h-1c-.2761,0-.5-.2239-.5-.5Z"></path></svg>
