<svg xmlns="http://www.w3.org/2000/svg" width="24" height="24"  fill="#EFEFEF"  id="home"><path fill-rule="evenodd" d="M10.867 3.851c-.506.29-1.11.733-1.981 1.375l-3.5 2.58C4.127 8.732 3.715 9.06 3.492 9.5c-.223.441-.242.967-.242 2.53V15.5c0 1.435.002 2.436.103 3.192.099.734.28 1.122.556 1.399.277.277.665.457 1.4.556.754.101 1.756.103 3.191.103h7c1.435 0 2.436-.002 3.192-.103.734-.099 1.122-.28 1.399-.556.277-.277.457-.665.556-1.4.101-.755.103-1.756.103-3.191v-3.468c0-1.564-.019-2.09-.242-2.53-.223-.442-.635-.77-1.894-1.697l-3.5-2.579c-.872-.642-1.475-1.085-1.98-1.375-.49-.28-.82-.375-1.134-.375-.315 0-.645.096-1.133.375ZM10.12 2.55c.616-.353 1.208-.574 1.879-.574s1.263.221 1.879.574c.59.337 1.262.833 2.089 1.442l3.536 2.606.14.103c1.061.78 1.799 1.323 2.203 2.124.404.8.404 1.716.403 3.033v3.697c0 1.367 0 2.47-.116 3.337-.122.9-.38 1.658-.982 2.26-.602.602-1.36.86-2.26.982-.867.116-1.97.116-3.337.116h-7.11c-1.367 0-2.47 0-3.337-.116-.9-.122-1.658-.38-2.26-.982-.602-.602-.86-1.36-.981-2.26-.117-.867-.117-1.97-.117-3.337v-3.698c0-1.316-.001-2.232.403-3.032.404-.8 1.142-1.343 2.202-2.124l.14-.103 3.537-2.606c.827-.61 1.5-1.105 2.09-1.442Z" clip-rule="evenodd"></path></svg>
