<svg xmlns="http://www.w3.org/2000/svg" width="24" height="24" fill="#EFEFEF" viewBox="0 0 24 24" id="stack-package"><path  d="M22.5 5C22.5 3.067 20.933 1.5 19 1.5H5C3.067 1.5 1.5 3.067 1.5 5V9C1.5 9.27614 1.72386 9.5 2 9.5C2.27614 9.5 2.5 9.27614 2.5 9V5C2.5 3.61929 3.61929 2.5 5 2.5H19C20.3807 2.5 21.5 3.61929 21.5 5V19C21.5 20.3807 20.3807 21.5 19 21.5H15C14.7239 21.5 14.5 21.7239 14.5 22C14.5 22.2761 14.7239 22.5 15 22.5H19C20.933 22.5 22.5 20.933 22.5 19V5Z" clip-rule="evenodd"></path><path d="M1.5 14C1.5 12.6193 2.61929 11.5 4 11.5H10C11.3807 11.5 12.5 12.6193 12.5 14V20C12.5 21.3807 11.3807 22.5 10 22.5H4C2.61929 22.5 1.5 21.3807 1.5 20V14ZM4 12.5C3.17157 12.5 2.5 13.1716 2.5 14V20C2.5 20.8284 3.17157 21.5 4 21.5H10C10.8284 21.5 11.5 20.8284 11.5 20V14C11.5 13.1716 10.8284 12.5 10 12.5H4Z" clip-rule="evenodd"></path><path d="M5 18.6283C5 19.3859 5.61413 20 6.37171 20H8.5C8.77614 20 9 19.7761 9 19.5 9 19.2239 8.77614 19 8.5 19H6.37171C6.16642 19 6 18.8336 6 18.6283 6 18.4683 6.10238 18.3263 6.25416 18.2757L7.86338 17.7393C8.54216 17.513 9 16.8778 9 16.1623 9 15.2442 8.25577 14.5 7.33772 14.5H5.5C5.22386 14.5 5 14.7239 5 15 5 15.2761 5.22386 15.5 5.5 15.5H7.33772C7.70349 15.5 8 15.7965 8 16.1623 8 16.4473 7.81759 16.7004 7.54715 16.7906L5.93794 17.327C5.37781 17.5137 5 18.0379 5 18.6283zM15.5 6C15.5 5.72386 15.2761 5.5 15 5.5H9C8.72386 5.5 8.5 5.72386 8.5 6 8.5 6.27614 8.72386 6.5 9 6.5H15C15.2761 6.5 15.5 6.27614 15.5 6z" clip-rule="evenodd"></path></svg>
